<svg xmlns="http://www.w3.org/2000/svg" width="200mm" height="200mm" viewBox="130 130 760 760"><title>Elamus Puhastus</title><path fill="#000000" fill-rule="evenodd" d="M 173,530 C 161,334 323,154 512,154 C 708,154 865,315 865,512 C 865,708 708,870 512,870 C 356,870 225,768 184,639 C 234,772 365,857 512,857 C 697,857 846,702 846,512 C 846,324 696,173 512,173 C 326,173 181,335 173,530 Z M655.000,651.350 C649.279,649.020 648.155,641.845 652.587,635.944 C654.009,634.050 657.229,629.350 659.741,625.500 C662.253,621.650 666.203,616.447 668.519,613.938 C674.388,607.577 675.367,605.549 673.368,603.890 C669.844,600.966 660.260,588.285 659.167,585.101 C656.842,578.328 658.833,560.458 662.410,556.000 C663.072,555.175 664.098,553.356 664.691,551.957 C666.642,547.352 676.136,537.802 678.220,538.347 C679.257,538.619 682.185,537.921 684.726,536.797 C694.586,532.435 707.159,536.433 711.688,545.370 C714.288,550.501 714.141,554.859 710.987,566.134 C708.826,573.856 699.323,580.581 694.341,577.915 C690.774,576.006 690.845,574.598 695.037,564.149 C700.114,551.494 700.017,545.579 694.659,541.132 C692.390,539.249 683.883,546.837 676.867,557.003 C666.594,571.887 665.819,585.133 674.645,594.950 C682.085,603.225 678.776,604.341 712.172,582.302 C724.091,574.436 734.042,568.000 734.283,568.000 C734.525,568.000 734.513,569.095 734.257,570.434 C733.677,573.469 726.663,579.041 708.994,590.504 C701.572,595.318 693.618,600.780 691.318,602.640 L687.136,606.023 L691.070,612.261 C699.579,625.755 698.758,629.033 684.000,640.457 C672.346,649.479 660.933,653.766 655.000,651.350 Z M678.774,628.646 C684.740,622.338 685.304,619.575 681.500,615.306 L679.000,612.500 L676.507,615.297 C675.136,616.836 673.774,619.311 673.481,620.797 C673.187,622.284 671.812,625.677 670.425,628.338 C668.466,632.094 668.160,633.488 669.056,634.567 C670.622,636.454 672.431,635.352 678.774,628.646 Z M626.216,646.991 C624.410,645.889 622.690,644.204 622.393,643.244 C622.097,642.285 621.516,640.825 621.103,640.000 C619.833,637.466 619.774,618.405 621.017,612.418 C622.001,607.680 621.955,606.526 620.734,605.306 C619.458,604.030 618.981,604.236 616.889,606.961 C608.991,617.252 604.113,621.000 598.617,621.000 C595.744,621.000 590.521,616.909 588.569,613.131 C587.142,610.366 587.333,599.600 588.846,597.581 C590.452,595.437 593.478,586.434 593.590,583.468 C593.717,580.083 601.672,566.000 603.457,566.000 C604.086,566.000 605.140,566.540 605.800,567.200 C606.460,567.860 607.000,568.015 607.000,567.545 C607.000,567.075 607.900,567.505 609.000,568.500 C611.731,570.972 611.491,573.615 608.000,579.500 C606.369,582.250 605.026,585.385 605.017,586.467 C605.008,587.548 604.369,590.248 603.599,592.467 C599.528,604.183 598.901,607.330 600.349,608.778 C601.546,609.975 602.411,609.360 606.374,604.496 C608.918,601.372 611.000,598.417 611.000,597.928 C611.000,597.439 613.250,593.689 616.000,589.596 C618.750,585.502 621.000,581.556 621.000,580.826 C621.000,580.097 622.529,578.280 624.398,576.789 C626.756,574.907 628.605,571.960 630.441,567.155 C633.689,558.654 635.839,556.514 640.801,556.843 C648.420,557.348 648.335,561.378 640.266,582.410 C633.454,600.164 629.640,635.615 633.750,642.969 C635.437,645.987 635.430,646.151 633.559,647.550 C631.018,649.448 630.137,649.381 626.216,646.991 Z M365.375,645.083 C358.803,642.098 355.546,634.462 355.541,622.025 C355.539,616.786 356.274,608.900 357.174,604.500 C359.461,593.320 358.379,592.389 351.111,599.283 C348.025,602.211 342.900,606.558 339.723,608.944 C334.205,613.087 334.021,613.366 335.637,615.151 C337.236,616.918 337.196,617.162 334.914,619.592 C332.182,622.503 320.671,628.268 314.182,629.977 C305.487,632.266 292.307,627.469 287.957,620.431 C284.528,614.882 285.458,599.594 289.761,590.784 C291.449,587.328 293.331,582.607 293.942,580.294 C296.674,569.954 315.701,547.183 323.413,545.024 C332.230,542.556 341.310,545.878 345.216,553.000 C347.679,557.492 347.086,566.157 344.057,569.941 C342.930,571.349 341.126,574.131 340.048,576.124 C335.769,584.034 323.775,590.716 312.096,591.695 C308.196,592.022 304.622,592.787 304.155,593.395 C300.675,597.921 297.981,617.737 300.266,622.000 C301.443,624.197 302.223,624.484 306.701,624.370 C315.214,624.153 321.449,620.497 334.310,608.182 C340.640,602.121 348.962,595.091 352.805,592.560 C356.647,590.028 360.232,587.404 360.772,586.729 C361.312,586.053 362.960,580.325 364.435,574.000 C365.910,567.675 368.433,557.775 370.041,552.000 C371.649,546.225 374.100,536.362 375.486,530.081 C376.990,523.272 379.094,516.813 380.700,514.081 C382.180,511.562 383.722,507.082 384.126,504.126 C384.557,500.977 386.769,494.882 389.470,489.405 C393.702,480.820 394.390,479.963 397.892,478.914 C400.702,478.072 402.252,478.065 403.785,478.885 C407.670,480.964 407.396,483.483 402.027,495.037 C397.171,505.487 391.071,522.590 389.535,530.062 C389.146,531.953 387.742,537.011 386.414,541.302 C385.086,545.593 384.000,550.250 384.000,551.650 C384.000,553.051 383.346,555.616 382.548,557.349 C380.670,561.424 377.509,574.099 375.527,585.500 C374.667,590.450 373.201,597.425 372.270,601.000 C371.115,605.437 370.565,611.625 370.539,620.500 L370.500,633.500 L373.917,637.750 C375.797,640.087 378.193,642.000 379.242,642.000 C380.290,642.000 383.815,639.457 387.074,636.348 C391.745,631.892 393.000,631.115 393.000,632.676 C393.000,635.875 387.228,643.664 383.572,645.399 C379.040,647.549 370.479,647.401 365.375,645.083 Z M362.651,611.634 C362.871,607.692 362.592,604.866 361.942,604.464 C361.234,604.026 361.448,603.163 362.573,601.919 C363.990,600.354 364.057,599.774 362.974,598.469 C361.816,597.074 361.505,597.066 360.172,598.400 C359.005,599.567 358.933,600.214 359.848,601.317 C360.764,602.421 360.696,603.008 359.538,603.968 C358.632,604.720 358.081,606.821 358.127,609.351 C358.168,611.633 357.941,614.592 357.624,615.926 C357.307,617.260 357.560,618.970 358.188,619.726 C360.302,622.273 362.255,618.733 362.651,611.634 Z M329.000,575.516 C334.988,570.620 336.789,566.859 336.923,558.973 C336.996,554.673 334.964,550.000 333.020,550.000 C330.945,550.000 325.727,555.693 320.391,563.776 C305.818,585.854 305.137,589.665 316.867,583.500 C320.515,581.582 325.975,577.990 329.000,575.516 Z M563.137,643.631 C558.344,641.896 552.309,636.525 549.944,631.890 C547.359,626.824 546.343,616.521 547.948,611.658 C549.214,607.821 549.921,607.321 551.642,609.042 C552.366,609.766 553.106,609.577 554.060,608.428 C555.254,606.989 555.133,606.526 553.143,604.915 C550.978,603.162 550.937,602.906 552.397,600.280 C553.247,598.751 554.417,595.608 554.997,593.295 C555.578,590.983 557.153,587.783 558.498,586.184 C559.844,584.586 560.703,583.036 560.408,582.741 C559.830,582.163 565.543,565.295 566.907,563.552 C568.458,561.569 568.876,554.142 567.500,553.000 C566.499,552.169 563.550,554.904 554.648,564.919 C548.294,572.067 542.343,579.397 541.424,581.208 C540.505,583.018 538.234,586.639 536.377,589.252 C534.519,591.866 533.000,594.393 533.000,594.867 C533.000,595.342 532.051,596.937 530.890,598.413 C529.730,599.888 528.042,602.565 527.140,604.362 C524.789,609.046 513.186,625.513 508.623,630.642 C504.119,635.704 501.982,636.031 496.732,632.464 C492.468,629.566 492.286,628.464 494.512,619.000 C498.750,600.983 499.969,592.543 498.539,591.112 C497.357,589.929 496.663,590.428 493.827,594.502 C485.643,606.256 470.665,624.518 467.516,626.581 C464.770,628.381 460.268,627.458 456.893,624.403 C455.297,622.959 455.019,623.041 453.463,625.416 C451.198,628.873 444.801,629.015 439.905,625.715 C435.871,622.996 434.604,617.515 435.567,606.941 C436.036,601.796 435.842,600.113 434.667,599.138 C433.409,598.095 432.668,598.622 430.055,602.420 C428.343,604.908 423.328,610.501 418.910,614.849 C411.657,621.985 410.322,622.871 405.166,623.965 C396.323,625.841 393.852,625.213 391.529,620.500 C386.706,610.714 392.666,589.072 404.424,573.668 C406.391,571.091 408.000,568.538 408.000,567.994 C408.000,566.418 414.812,559.308 419.901,555.573 C427.485,550.006 441.966,545.884 446.236,548.077 C449.695,549.854 454.995,555.199 454.343,556.254 C454.024,556.770 455.148,558.455 456.839,560.000 C460.293,563.155 460.300,563.058 455.672,575.215 C454.267,578.908 452.641,585.349 452.059,589.528 C451.478,593.707 450.567,597.940 450.035,598.934 C449.504,599.928 448.763,604.404 448.389,608.882 C447.800,615.951 447.950,617.288 449.532,619.036 C451.347,621.041 451.368,621.036 454.766,617.774 C458.979,613.732 462.219,607.510 464.542,599.000 C465.518,595.425 467.081,590.925 468.016,589.000 C470.464,583.960 471.241,579.995 470.059,578.571 C469.336,577.701 469.777,575.132 471.542,569.917 C472.922,565.837 475.107,558.981 476.396,554.680 C479.381,544.722 479.786,544.340 484.698,546.846 C490.022,549.562 491.380,551.390 490.568,554.744 C490.201,556.260 489.512,559.561 489.037,562.081 C488.562,564.601 486.332,571.332 484.081,577.039 C480.604,585.853 480.195,587.624 481.365,588.794 C482.535,589.964 484.020,588.688 491.225,580.320 C495.890,574.901 500.482,568.969 501.429,567.137 C503.031,564.039 503.409,563.851 506.826,564.453 C515.686,566.014 519.524,568.725 517.503,571.995 C517.159,572.552 516.481,576.043 515.996,579.754 C515.511,583.464 514.344,589.340 513.404,592.811 C511.930,598.250 511.889,599.317 513.107,600.536 C514.325,601.754 515.039,601.435 518.272,598.225 C524.467,592.074 532.380,582.841 536.464,577.000 C538.580,573.975 543.897,567.317 548.280,562.205 C553.351,556.291 556.250,552.053 556.250,550.556 C556.250,548.957 558.627,545.844 563.660,540.851 C568.314,536.234 571.967,531.547 573.480,528.250 C574.805,525.362 576.153,523.000 576.476,523.000 C578.169,523.000 589.665,527.315 590.660,528.324 C592.455,530.144 587.062,551.938 582.613,560.843 C581.333,563.405 579.962,566.850 579.566,568.500 C579.170,570.150 577.306,575.009 575.423,579.298 C573.540,583.588 572.000,587.666 572.000,588.361 C572.000,589.056 571.035,591.621 569.856,594.062 C562.485,609.316 559.629,628.790 563.963,634.250 C567.020,638.102 571.762,638.041 587.949,633.939 C595.045,632.141 592.918,635.967 583.895,641.230 C576.890,645.317 569.998,646.114 563.137,643.631 Z M411.844,607.814 C413.305,606.336 416.210,602.961 418.300,600.314 C420.390,597.666 423.652,593.545 425.550,591.155 C427.447,588.766 429.000,586.419 429.000,585.940 C429.000,585.461 430.297,583.591 431.883,581.785 C433.469,579.978 435.482,576.785 436.358,574.688 C437.233,572.591 440.436,568.448 443.475,565.481 C446.514,562.515 449.000,559.864 449.000,559.592 C449.000,558.425 439.951,553.000 438.004,553.000 C433.349,553.000 427.818,559.166 420.513,572.500 C418.404,576.350 416.124,580.175 415.447,581.000 C412.980,584.006 405.870,598.677 403.573,605.500 C399.943,616.285 402.706,617.058 411.844,607.814 Z"/><path fill="#000000" fill-rule="evenodd" d="M378.000,703.384 L378.000,674.767 L387.838,675.163 C401.346,675.705 406.003,679.168 407.607,689.866 C409.352,701.500 402.723,709.756 390.716,710.905 L384.500,711.500 L384.215,721.750 L383.930,732.000 L380.965,732.000 L378.000,732.000 L378.000,703.384 Z M398.703,701.751 C403.656,696.799 402.616,685.006 396.960,681.978 C395.849,681.384 392.591,681.033 389.720,681.199 L384.500,681.500 L384.213,691.932 C383.839,705.512 383.760,705.351 390.581,704.785 C394.828,704.433 396.734,703.721 398.703,701.751 Z M417.190,729.974 C411.442,726.470 410.930,723.741 411.231,698.237 L411.500,675.500 L414.000,675.500 L416.500,675.500 L417.000,698.648 C417.443,719.151 417.707,722.023 419.310,723.792 C423.111,727.987 430.930,726.969 433.530,721.941 C434.693,719.693 435.000,714.491 435.000,697.050 L435.000,675.000 L437.500,675.000 C439.405,675.000 440.017,675.535 440.069,677.250 C440.515,691.666 439.650,723.674 438.763,725.621 C435.960,731.773 424.074,734.171 417.190,729.974 Z M446.452,730.735 C446.185,730.039 446.086,717.327 446.233,702.485 L446.500,675.500 L449.000,675.500 L451.500,675.500 L452.000,687.500 L452.500,699.500 L461.000,699.500 L469.500,699.500 L469.781,687.187 L470.063,674.873 L472.781,675.187 L475.500,675.500 L475.766,703.750 L476.031,732.000 L473.045,732.000 L470.060,732.000 L469.780,719.250 L469.500,706.500 L461.000,706.500 L452.500,706.500 L452.220,719.250 L451.940,732.000 L449.439,732.000 C448.063,732.000 446.719,731.431 446.452,730.735 Z M479.703,731.250 C479.367,730.643 490.785,687.355 493.748,678.000 C494.718,674.938 498.573,674.042 499.376,676.692 C503.888,691.583 513.822,730.844 513.229,731.438 C512.920,731.747 511.709,732.000 510.540,732.000 C508.741,732.000 508.204,731.035 507.063,725.750 C504.900,715.738 505.054,715.874 496.193,716.209 L488.500,716.500 L486.614,724.250 C484.940,731.129 484.469,732.000 482.423,732.000 C481.155,732.000 479.931,731.663 479.703,731.250 Z M502.300,709.250 C502.984,708.021 498.586,690.186 497.275,688.875 C495.832,687.432 495.972,687.101 492.682,699.722 C491.360,704.795 490.515,709.182 490.806,709.472 C491.625,710.291 501.830,710.094 502.300,709.250 Z M521.979,729.750 C518.342,727.282 516.194,722.551 516.076,716.750 C516.005,713.233 516.186,713.000 519.000,713.000 C521.824,713.000 522.000,713.231 522.000,716.923 C522.000,725.559 530.444,729.963 536.694,724.587 C538.992,722.610 539.500,721.362 539.500,717.692 C539.500,711.959 537.763,710.045 528.342,705.389 C518.404,700.479 515.996,697.506 516.015,690.173 C516.042,679.544 521.259,674.564 531.693,675.206 C540.859,675.771 545.000,680.541 545.000,690.534 C545.000,694.961 544.897,695.121 542.250,694.816 C539.711,694.524 539.459,694.089 538.961,689.130 C538.332,682.861 535.688,680.000 530.524,680.000 C525.134,680.000 522.000,683.271 522.000,688.898 C522.000,694.476 523.364,696.042 532.500,700.949 C542.196,706.157 546.032,710.929 545.978,717.718 C545.942,722.246 542.460,728.711 539.128,730.434 C534.522,732.816 525.997,732.476 521.979,729.750 Z M557.767,706.750 L557.500,681.500 L552.250,681.198 C547.172,680.905 547.000,680.799 547.000,677.948 L547.000,675.000 L560.917,675.000 C575.303,675.000 576.251,675.278 575.233,679.201 C574.904,680.472 573.489,680.978 569.646,681.201 L564.500,681.500 L564.233,706.750 L563.966,732.000 L561.000,732.000 L558.034,732.000 L557.767,706.750 Z M585.898,729.715 C580.661,726.194 580.120,723.228 580.056,697.684 L580.000,674.867 L582.750,675.184 L585.500,675.500 L586.000,698.724 C586.482,721.114 586.581,722.029 588.741,724.187 C591.974,727.417 598.668,727.060 601.750,723.492 C603.943,720.955 604.000,720.303 604.000,697.878 L604.000,674.867 L606.587,675.184 L609.174,675.500 L609.337,699.000 C609.518,725.045 609.052,727.370 603.033,730.483 C598.485,732.835 589.970,732.453 585.898,729.715 Z M622.299,730.040 C618.143,727.507 616.000,723.234 616.000,717.483 C616.000,713.037 616.101,712.879 618.750,713.184 C620.988,713.441 621.554,714.058 621.790,716.500 C622.268,721.429 624.162,725.111 626.721,726.084 C633.647,728.717 639.500,724.873 639.500,717.692 C639.500,711.948 637.695,709.961 628.526,705.608 C618.536,700.867 616.000,697.617 616.000,689.558 C616.000,679.995 620.975,675.000 630.500,675.000 C639.537,675.000 644.224,679.701 644.396,688.938 C644.496,694.292 644.397,694.512 641.750,694.816 C639.225,695.107 639.000,694.854 639.000,691.716 C639.000,683.957 636.028,680.000 630.201,680.000 C625.124,680.000 622.000,683.383 622.000,688.881 C622.000,695.074 623.041,696.309 632.524,701.359 C642.304,706.569 645.000,710.057 645.000,717.500 C645.000,723.335 642.215,728.573 637.970,730.721 C634.151,732.653 626.004,732.300 622.299,730.040 Z M505.629,432.249 L500.758,431.881 L501.398,426.690 C502.600,416.953 508.069,407.636 531.445,375.500 C536.875,368.035 544.828,353.325 546.374,347.884 L547.052,345.500 L548.547,348.228 C555.552,361.017 559.706,384.533 557.008,396.125 C551.638,419.201 530.417,434.121 505.629,432.249 Z M477.030,418.125 C467.952,409.047 463.163,395.527 464.285,382.144 C465.304,369.985 470.990,358.934 488.028,336.000 C503.146,315.649 508.656,305.495 510.490,294.603 L511.146,290.707 L517.114,296.603 C527.163,306.532 531.761,318.701 530.713,332.596 C529.776,345.018 523.419,356.992 503.726,383.436 C492.863,398.023 486.733,409.153 485.021,417.398 C484.382,420.479 483.419,423.000 482.881,423.000 C482.344,423.000 479.711,420.806 477.030,418.125 Z"/></svg>